<mxfile host="app.diagrams.net" agent="Mozilla/5.0 (Windows NT 10.0; Win64; x64) AppleWebKit/537.36 (KHTML, like Gecko) Chrome/132.0.0.0 YaBrowser/25.2.0.0 Safari/537.36" version="26.0.16">
  <diagram name="Страница — 1" id="BumWTTKB_MWYybl9p1yY">
    <mxGraphModel dx="1434" dy="791" grid="1" gridSize="10" guides="1" tooltips="1" connect="1" arrows="1" fold="1" page="1" pageScale="1" pageWidth="827" pageHeight="1169" math="0" shadow="0">
      <root>
        <mxCell id="0" />
        <mxCell id="1" parent="0" />
        <mxCell id="7aq_pP4QWV9HpLuU0PhC-1" value="" style="shape=folder;fontStyle=1;spacingTop=10;tabWidth=40;tabHeight=14;tabPosition=left;html=1;whiteSpace=wrap;" vertex="1" parent="1">
          <mxGeometry x="50" y="70" width="160" height="370" as="geometry" />
        </mxCell>
        <mxCell id="7aq_pP4QWV9HpLuU0PhC-2" value="Администрирование" style="text;align=center;fontStyle=1;verticalAlign=middle;spacingLeft=3;spacingRight=3;strokeColor=none;rotatable=0;points=[[0,0.5],[1,0.5]];portConstraint=eastwest;html=1;" vertex="1" parent="1">
          <mxGeometry x="55" y="90" width="150" height="26" as="geometry" />
        </mxCell>
        <mxCell id="7aq_pP4QWV9HpLuU0PhC-3" value="Управление доступом" style="shape=folder;fontStyle=1;spacingTop=10;tabWidth=40;tabHeight=14;tabPosition=left;html=1;whiteSpace=wrap;" vertex="1" parent="1">
          <mxGeometry x="80" y="116" width="100" height="60" as="geometry" />
        </mxCell>
        <mxCell id="7aq_pP4QWV9HpLuU0PhC-4" value="Управление&lt;div&gt;клиентами&lt;/div&gt;" style="shape=folder;fontStyle=1;spacingTop=10;tabWidth=40;tabHeight=14;tabPosition=left;html=1;whiteSpace=wrap;" vertex="1" parent="1">
          <mxGeometry x="80" y="190" width="100" height="70" as="geometry" />
        </mxCell>
        <mxCell id="7aq_pP4QWV9HpLuU0PhC-5" value="Управление&lt;div&gt;заказами&lt;/div&gt;" style="shape=folder;fontStyle=1;spacingTop=10;tabWidth=40;tabHeight=14;tabPosition=left;html=1;whiteSpace=wrap;" vertex="1" parent="1">
          <mxGeometry x="80" y="270" width="100" height="70" as="geometry" />
        </mxCell>
        <mxCell id="7aq_pP4QWV9HpLuU0PhC-6" value="Управление&lt;div&gt;товарами&lt;/div&gt;" style="shape=folder;fontStyle=1;spacingTop=10;tabWidth=40;tabHeight=14;tabPosition=left;html=1;whiteSpace=wrap;" vertex="1" parent="1">
          <mxGeometry x="80" y="350" width="100" height="70" as="geometry" />
        </mxCell>
        <mxCell id="7aq_pP4QWV9HpLuU0PhC-7" value="" style="shape=folder;fontStyle=1;spacingTop=10;tabWidth=40;tabHeight=14;tabPosition=left;html=1;whiteSpace=wrap;" vertex="1" parent="1">
          <mxGeometry x="370" y="70" width="320" height="370" as="geometry" />
        </mxCell>
        <mxCell id="7aq_pP4QWV9HpLuU0PhC-8" value="Хранилище данных" style="text;align=center;fontStyle=1;verticalAlign=middle;spacingLeft=3;spacingRight=3;strokeColor=none;rotatable=0;points=[[0,0.5],[1,0.5]];portConstraint=eastwest;html=1;" vertex="1" parent="1">
          <mxGeometry x="465" y="90" width="130" height="26" as="geometry" />
        </mxCell>
        <mxCell id="7aq_pP4QWV9HpLuU0PhC-9" value="" style="shape=folder;fontStyle=1;spacingTop=10;tabWidth=40;tabHeight=14;tabPosition=left;html=1;whiteSpace=wrap;" vertex="1" parent="1">
          <mxGeometry x="50" y="480" width="160" height="220" as="geometry" />
        </mxCell>
        <mxCell id="7aq_pP4QWV9HpLuU0PhC-10" value="Клиент" style="text;align=center;fontStyle=1;verticalAlign=middle;spacingLeft=3;spacingRight=3;strokeColor=none;rotatable=0;points=[[0,0.5],[1,0.5]];portConstraint=eastwest;html=1;" vertex="1" parent="1">
          <mxGeometry x="90" y="500" width="80" height="26" as="geometry" />
        </mxCell>
        <mxCell id="7aq_pP4QWV9HpLuU0PhC-11" value="Просмотр каталога товаров" style="shape=folder;fontStyle=1;spacingTop=10;tabWidth=40;tabHeight=14;tabPosition=left;html=1;whiteSpace=wrap;" vertex="1" parent="1">
          <mxGeometry x="87.5" y="526" width="85" height="66" as="geometry" />
        </mxCell>
        <mxCell id="7aq_pP4QWV9HpLuU0PhC-12" value="Просмотр своих заказов" style="shape=folder;fontStyle=1;spacingTop=10;tabWidth=40;tabHeight=14;tabPosition=left;html=1;whiteSpace=wrap;" vertex="1" parent="1">
          <mxGeometry x="87.5" y="610" width="85" height="66" as="geometry" />
        </mxCell>
        <mxCell id="7aq_pP4QWV9HpLuU0PhC-13" value="БД товаров" style="shape=folder;fontStyle=1;spacingTop=10;tabWidth=40;tabHeight=14;tabPosition=left;html=1;whiteSpace=wrap;" vertex="1" parent="1">
          <mxGeometry x="470" y="130" width="120" height="50" as="geometry" />
        </mxCell>
        <mxCell id="7aq_pP4QWV9HpLuU0PhC-14" value="БД клиентов" style="shape=folder;fontStyle=1;spacingTop=10;tabWidth=40;tabHeight=14;tabPosition=left;html=1;whiteSpace=wrap;" vertex="1" parent="1">
          <mxGeometry x="470" y="200" width="120" height="50" as="geometry" />
        </mxCell>
        <mxCell id="7aq_pP4QWV9HpLuU0PhC-15" value="БД заказов" style="shape=folder;fontStyle=1;spacingTop=10;tabWidth=40;tabHeight=14;tabPosition=left;html=1;whiteSpace=wrap;" vertex="1" parent="1">
          <mxGeometry x="470" y="270" width="120" height="50" as="geometry" />
        </mxCell>
        <mxCell id="7aq_pP4QWV9HpLuU0PhC-16" value="БД деталей заказа" style="shape=folder;fontStyle=1;spacingTop=10;tabWidth=40;tabHeight=14;tabPosition=left;html=1;whiteSpace=wrap;" vertex="1" parent="1">
          <mxGeometry x="470" y="340" width="120" height="50" as="geometry" />
        </mxCell>
        <mxCell id="7aq_pP4QWV9HpLuU0PhC-18" value="Use" style="endArrow=open;endSize=12;dashed=1;html=1;rounded=0;exitX=0;exitY=0;exitDx=100;exitDy=37;exitPerimeter=0;entryX=0;entryY=0;entryDx=0;entryDy=32;entryPerimeter=0;" edge="1" parent="1" source="7aq_pP4QWV9HpLuU0PhC-3" target="7aq_pP4QWV9HpLuU0PhC-14">
          <mxGeometry width="160" relative="1" as="geometry">
            <mxPoint x="330" y="410" as="sourcePoint" />
            <mxPoint x="490" y="410" as="targetPoint" />
          </mxGeometry>
        </mxCell>
        <mxCell id="7aq_pP4QWV9HpLuU0PhC-19" value="Use" style="endArrow=open;endSize=12;dashed=1;html=1;rounded=0;exitX=0;exitY=0;exitDx=100;exitDy=42;exitPerimeter=0;entryX=0;entryY=0;entryDx=0;entryDy=23;entryPerimeter=0;" edge="1" parent="1" source="7aq_pP4QWV9HpLuU0PhC-4" target="7aq_pP4QWV9HpLuU0PhC-14">
          <mxGeometry width="160" relative="1" as="geometry">
            <mxPoint x="180" y="191" as="sourcePoint" />
            <mxPoint x="470" y="200" as="targetPoint" />
          </mxGeometry>
        </mxCell>
        <mxCell id="7aq_pP4QWV9HpLuU0PhC-20" value="Use" style="endArrow=open;endSize=12;dashed=1;html=1;rounded=0;exitX=0;exitY=0;exitDx=100;exitDy=42;exitPerimeter=0;entryX=0;entryY=0;entryDx=0;entryDy=32;entryPerimeter=0;" edge="1" parent="1" source="7aq_pP4QWV9HpLuU0PhC-5" target="7aq_pP4QWV9HpLuU0PhC-15">
          <mxGeometry width="160" relative="1" as="geometry">
            <mxPoint x="200" y="173" as="sourcePoint" />
            <mxPoint x="490" y="182" as="targetPoint" />
          </mxGeometry>
        </mxCell>
        <mxCell id="7aq_pP4QWV9HpLuU0PhC-21" value="Use" style="endArrow=open;endSize=12;dashed=1;html=1;rounded=0;exitX=0;exitY=0;exitDx=100;exitDy=42;exitPerimeter=0;entryX=0;entryY=0;entryDx=0;entryDy=32;entryPerimeter=0;" edge="1" parent="1" source="7aq_pP4QWV9HpLuU0PhC-5" target="7aq_pP4QWV9HpLuU0PhC-16">
          <mxGeometry width="160" relative="1" as="geometry">
            <mxPoint x="210" y="183" as="sourcePoint" />
            <mxPoint x="500" y="192" as="targetPoint" />
          </mxGeometry>
        </mxCell>
        <mxCell id="7aq_pP4QWV9HpLuU0PhC-22" value="Use" style="endArrow=open;endSize=12;dashed=1;html=1;rounded=0;exitX=0;exitY=0;exitDx=100;exitDy=42;exitPerimeter=0;entryX=0;entryY=0;entryDx=0;entryDy=32;entryPerimeter=0;" edge="1" parent="1" source="7aq_pP4QWV9HpLuU0PhC-6" target="7aq_pP4QWV9HpLuU0PhC-13">
          <mxGeometry width="160" relative="1" as="geometry">
            <mxPoint x="220" y="193" as="sourcePoint" />
            <mxPoint x="510" y="202" as="targetPoint" />
          </mxGeometry>
        </mxCell>
        <mxCell id="7aq_pP4QWV9HpLuU0PhC-23" value="Use" style="endArrow=open;endSize=12;dashed=1;html=1;rounded=0;exitX=0;exitY=0;exitDx=85;exitDy=40;exitPerimeter=0;entryX=0;entryY=0;entryDx=0;entryDy=32;entryPerimeter=0;" edge="1" parent="1" source="7aq_pP4QWV9HpLuU0PhC-11" target="7aq_pP4QWV9HpLuU0PhC-13">
          <mxGeometry width="160" relative="1" as="geometry">
            <mxPoint x="230" y="203" as="sourcePoint" />
            <mxPoint x="520" y="212" as="targetPoint" />
          </mxGeometry>
        </mxCell>
        <mxCell id="7aq_pP4QWV9HpLuU0PhC-24" value="Use" style="endArrow=open;endSize=12;dashed=1;html=1;rounded=0;exitX=0;exitY=0;exitDx=85;exitDy=40;exitPerimeter=0;entryX=0;entryY=0;entryDx=0;entryDy=32;entryPerimeter=0;" edge="1" parent="1" source="7aq_pP4QWV9HpLuU0PhC-12" target="7aq_pP4QWV9HpLuU0PhC-15">
          <mxGeometry width="160" relative="1" as="geometry">
            <mxPoint x="240" y="213" as="sourcePoint" />
            <mxPoint x="530" y="222" as="targetPoint" />
          </mxGeometry>
        </mxCell>
      </root>
    </mxGraphModel>
  </diagram>
</mxfile>
